{"title":"Sasubai Gelya Chorila 2013 Marathi 1080p Untouched HD x264 [TMB]","uid":15538136,"size":3034376343,"categoryP":"video","categoryS":"movies","magnet":"?xt=urn:btih:23e6aabdb3a432f1d159dc8bcdd993fcd4716aff&amp;dn=Sasubai+Gelya+Chorila+2013+Marathi+1080p+Untouched+HD+x264+%5BTMB%5D&amp;tr=udp%3A%2F%2Ftracker.leechers-paradise.org%3A6969&amp;tr=udp%3A%2F%2Fzer0day.ch%3A1337&amp;tr=udp%3A%2F%2Fopen.demonii.com%3A1337&amp;tr=udp%3A%2F%2Ftracker.coppersurfer.tk%3A6969&amp;tr=udp%3A%2F%2Fexodus.desync.com%3A6969","seeders":1,"leechers":0,"uploader":"Manoj_vb","files":1,"time":1470902557,"description":"http://i1306.photobucket.com/albums/s570/zyx55e/44_zpsc46e809d.gif\r\n \nhttps://s25.postimg.org/qfeer6ry7/Sasubai_Gelya_Chorila.jpg\r\n \nhttps://s25.postimg.org/82982vs3j/vlcsnap_1909_08_23_07h58m12s277.png\r\n \nhttps://s25.postimg.org/u2pkjiarj/vlcsnap_2882_12_07_09h31m55s834.png\r\n \nhttps://s25.postimg.org/6prj0zunz/vlcsnap_3287_02_25_08h48m52s777.png\r\n \nhttps://s25.postimg.org/pjhxbqi9r/vlcsnap_3497_01_30_01h35m40s185.png\r\n \nhttps://s25.postimg.org/loej95z3z/vlcsnap_4150_07_24_08h15m23s685.png\r\n \nhttps://s25.postimg.org/8yaaw2r5r/vlcsnap_6059_08_27_19h31m11s641.png\r\n \nhttps://s25.postimg.org/8a1gd4sfz/vlcsnap_6979_08_18_09h32m51s102.png\r\n \nhttps://s25.postimg.org/l2pkd241r/vlcsnap_7567_03_25_17h53m47s875.png\r\n \nhttp://i1306.photobucket.com/albums/s570/zyx55e/oie_11162011MOJeDGQI_zpsc25b2b81.gif\r\n\r\nGeneral\r\nComplete name               : Sasubai Gelya Chorila 2013 1080p Untouched WebHD x264 AAC [TMB].mp4\r\nFormat                      : MPEG-4\r\nFormat profile              : Base Media\r\nCodec ID                    : isom (isom/iso2/avc1/mp41)\r\nFile size                   : 2.83 GiB\r\nDuration                    : 2h 10mn\r\nOverall bit rate mode       : Variable\r\nOverall bit rate            : 3 095 Kbps\r\n\r\nVideo\r\nFormat                      : AVC\r\nFormat/Info                 : Advanced Video Codec\r\nFormat profile              :   \r\nFormat settings, CABAC      : Yes\r\nFormat settings, ReFrames   : 2 frames\r\nCodec ID                    : avc1\r\nCodec ID/Info               : Advanced Video Coding\r\nDuration                    : 2h 10mn\r\nSource duration             : 2h 10mn\r\nBit rate                    : 2 967 Kbps\r\nWidth                       : 1 920 pixels\r\nHeight                      : 1 080 pixels\r\nDisplay aspect ratio        : 16:9\r\nFrame rate mode             : Constant\r\nFrame rate                  : 25.000 fps\r\nColor space                 : YUV\r\nChroma subsampling          : 4:2:0\r\nBit depth                   : 8 bits\r\nScan type                   : Progressive\r\nBits/(Pixel*Frame)          : 0.057\r\nStream size                 : 2.71 GiB (96%)\r\nSource stream size          : 2.71 GiB (96%)\r\n\r\nAudio\r\nFormat                      : AAC\r\nFormat/Info                 : Advanced Audio Codec\r\nFormat profile              : LC\r\nCodec ID                    : 40\r\nDuration                    : 2h 10mn\r\nBit rate mode               : Variable\r\nBit rate                    : 126 Kbps\r\nChannel(s)                  : 2 channels\r\nChannel positions           : Front: L R\r\nSampling rate               : 44.1 KHz\r\nFrame rate                  : 43.066 fps (1024 spf)\r\nCompression mode            : Lossy\r\nStream size                 : 117 MiB (4%)\r\n\r\nShared by Manojvb\r\n\r\nSeeding 24x7... Extreme Seeding...\r\n\r\n \nhttp://i1306.photobucket.com/albums/s570/zyx55e/oie_1117625zVIGKvnK_zpsc8b6e055.gif","torrent":{"xt":"urn:btih:23e6aabdb3a432f1d159dc8bcdd993fcd4716aff","amp;dn":"Sasubai+Gelya+Chorila+2013+Marathi+1080p+Untouched+HD+x264+%5BTMB%5D","amp;tr":["udp%3A%2F%2Ftracker.leechers-paradise.org%3A6969","udp%3A%2F%2Fzer0day.ch%3A1337","udp%3A%2F%2Fopen.demonii.com%3A1337","udp%3A%2F%2Ftracker.coppersurfer.tk%3A6969","udp%3A%2F%2Fexodus.desync.com%3A6969"],"infoHash":"23e6aabdb3a432f1d159dc8bcdd993fcd4716aff","infoHashBuffer":{"type":"Buffer","data":[35,230,170,189,179,164,50,241,209,89,220,139,205,217,147,252,212,113,106,255]},"announce":[],"urlList":[]}}